<?xml version="1.0" encoding="UTF-8"?>
<svg xmlns="http://www.w3.org/2000/svg" style="stroke-dasharray:none; shape-rendering:auto; font-family:'Arial'; text-rendering:auto; fill-opacity:1; color-interpolation:auto; color-rendering:auto; font-size:12; fill:black; stroke:black; image-rendering:auto; stroke-miterlimit:10; stroke-linecap:square; stroke-linejoin:miter; font-style:normal; stroke-width:1; stroke-dashoffset:0; font-weight:normal; stroke-opacity:1;" contentScriptType="text/ecmascript" preserveAspectRatio="xMidYMid meet" zoomAndPan="magnify" version="1.0" contentStyleType="text/css" xml:xlink="http://www.w3.org/1999/xlink" width="3300" height="1260"><rect x="60" y="10" width="3240" height="1250" ry="0" rx="0" style="stroke:#000000; fill:#FFFFFF" /><rect x="90" y="426" width="3210" height="208" ry="0" rx="0" style="stroke:#000000; fill:#9FC1C6" /><g componentSequence="7"><text x="-530" y="97" transform="rotate(270)" text-anchor="middle" style="font-weight:bold;font-size:10px;stroke:none; fill:#434343"><tspan dy="14" x="-530">Marilu</tspan></text></g><rect x="90" y="1050" width="3210" height="210" ry="0" rx="0" style="stroke:#000000; fill:#C9C3AC" /><g componentSequence="6"><text x="-1155" y="97" transform="rotate(270)" text-anchor="middle" style="font-weight:bold;font-size:10px;stroke:none; fill:#434343"><tspan dy="14" x="-1155">TTCYD</tspan></text></g><rect x="90" y="634" width="3210" height="208" ry="0" rx="0" style="stroke:#000000; fill:#D6E0D0" /><g componentSequence="5"><text x="-738" y="97" transform="rotate(270)" text-anchor="middle" style="font-weight:bold;font-size:10px;stroke:none; fill:#434343"><tspan dy="14" x="-738">Monica</tspan></text></g><rect x="90" y="218" width="3210" height="208" ry="0" rx="0" style="stroke:#000000; fill:#D0DAAE" /><g componentSequence="4"><text x="-322" y="97" transform="rotate(270)" text-anchor="middle" style="font-weight:bold;font-size:10px;stroke:none; fill:#434343"><tspan dy="14" x="-322">Cliente</tspan></text></g><rect x="90" y="842" width="3210" height="208" ry="0" rx="0" style="stroke:#000000; fill:#ADC9AC" /><g componentSequence="3"><text x="-946" y="97" transform="rotate(270)" text-anchor="middle" style="font-weight:bold;font-size:10px;stroke:none; fill:#434343"><tspan dy="14" x="-946">Gustavo</tspan></text></g><rect x="90" y="10" width="3210" height="208" ry="0" rx="0" style="stroke:#000000; fill:#82B0B7" /><g componentSequence="2"><text x="-114" y="97" transform="rotate(270)" text-anchor="middle" style="font-weight:bold;font-size:10px;stroke:none; fill:#434343"><tspan dy="14" x="-114">Operador</tspan></text></g><g componentSequence="1"><text x="-635" y="67" transform="rotate(270)" text-anchor="middle" style="font-weight:bold;font-size:10px;stroke:none; fill:#434343"><tspan dy="14" x="-635">Pool</tspan></text></g><g sequence="8"><ellipse cx="187" cy="107" rx="17" ry="17" stroke-width="1" style="fill:url(#linearGradient66FF6696FF96B6FFB6_3829265);" stroke="336633" /></g><g sequence="9"><rect x="360" y="70" width="106" height="70" ry="5" rx="5" style="fill:url(#linearGradientF8FBFEEDF5FCDEEDFAD4E7F8E2E5E9_251498598);" stroke="191970" /></g><g componentSequence="9"><text x="413" y="85" text-anchor="middle" style="font-weight:bold;font-size:10px;stroke:none; fill:#333399"><tspan dy="14" x="413">Entrega</tspan><tspan dy="14" x="413">Remision</tspan></text></g><g sequence="11"><rect x="497" y="317" width="106" height="70" ry="5" rx="5" style="fill:url(#linearGradientF8FBFEEDF5FCDEEDFAD4E7F8E2E5E9_180487521);" stroke="191970" /></g><g componentSequence="11"><text x="550" y="332" text-anchor="middle" style="font-weight:bold;font-size:10px;stroke:none; fill:#333399"><tspan dy="14" x="550">Firma de</tspan><tspan dy="14" x="550">Remision</tspan></text></g><g sequence="13"><rect x="600" y="70" width="106" height="70" ry="5" rx="5" style="fill:url(#linearGradientF8FBFEEDF5FCDEEDFAD4E7F8E2E5E9_1338022493);" stroke="191970" /></g><g componentSequence="13"><text x="653" y="85" text-anchor="middle" style="font-weight:bold;font-size:10px;stroke:none; fill:#333399"><tspan dy="14" x="653">Envia Remision</tspan><tspan dy="14" x="653">Escaneada</tspan></text></g><g sequence="15"><rect x="760" y="531" width="106" height="70" ry="5" rx="5" style="fill:url(#linearGradientF8FBFEEDF5FCDEEDFAD4E7F8E2E5E9_475606866);" stroke="191970" /></g><g componentSequence="15"><text x="813" y="555" text-anchor="middle" style="font-weight:bold;font-size:10px;stroke:none; fill:#333399"><tspan dy="14" x="813">Recibe Remision</tspan></text></g><g sequence="19"><rect x="1120" y="430" width="106" height="70" ry="5" rx="5" style="fill:url(#linearGradientF8FBFEEDF5FCDEEDFAD4E7F8E2E5E9_2118513183);" stroke="191970" /></g><g componentSequence="19"><text x="1173" y="445" text-anchor="middle" style="font-weight:bold;font-size:10px;stroke:none; fill:#333399"><tspan dy="14" x="1173">Cuadre de</tspan><tspan dy="14" x="1173">Gastos</tspan></text></g><g sequence="21"><rect x="1300" y="550" width="106" height="70" ry="5" rx="5" style="fill:url(#linearGradientF8FBFEEDF5FCDEEDFAD4E7F8E2E5E9_1681267131);" stroke="191970" /></g><g componentSequence="21"><text x="1353" y="565" text-anchor="middle" style="font-weight:bold;font-size:10px;stroke:none; fill:#333399"><tspan dy="14" x="1353">Hace Factura de</tspan><tspan dy="14" x="1353">Gastos</tspan></text></g><g sequence="24"><rect x="1566" y="532" width="106" height="70" ry="5" rx="5" style="fill:url(#linearGradientF8FBFEEDF5FCDEEDFAD4E7F8E2E5E9_804218130);" stroke="191970" /></g><g componentSequence="24"><text x="1619" y="547" text-anchor="middle" style="font-weight:bold;font-size:10px;stroke:none; fill:#333399"><tspan dy="14" x="1619">Envia</tspan><tspan dy="14" x="1619">Documentos</tspan></text></g><g sequence="26"><rect x="1310" y="730" width="106" height="56" ry="5" rx="5" style="fill:url(#linearGradientF8FBFEEDF5FCDEEDFAD4E7F8E2E5E9_2048523266);" stroke="191970" /></g><g componentSequence="26"><text x="1363" y="747" text-anchor="middle" style="font-weight:bold;font-size:10px;stroke:none; fill:#333399"><tspan dy="14" x="1363">Envia Factura</tspan></text></g><g sequence="28"><rect x="1340" y="1162" width="106" height="70" ry="5" rx="5" style="fill:url(#linearGradientF8FBFEEDF5FCDEEDFAD4E7F8E2E5E9_731724884);" stroke="191970" /></g><g componentSequence="28"><text x="1393" y="1177" text-anchor="middle" style="font-weight:bold;font-size:10px;stroke:none; fill:#333399"><tspan dy="14" x="1393">Recibe Facturas</tspan><tspan dy="14" x="1393"></tspan></text></g><g sequence="30"><ellipse cx="1577" cy="1197" rx="17" ry="17" stroke-width="3" style="fill:url(#linearGradientFF6666FF9696FFB6B6_2133988189);" stroke="993333" /></g><g sequence="32"><rect x="1620" y="709" width="106" height="70" ry="5" rx="5" style="fill:url(#linearGradientF8FBFEEDF5FCDEEDFAD4E7F8E2E5E9_731987548);" stroke="191970" /></g><g componentSequence="32"><text x="1673" y="724" text-anchor="middle" style="font-weight:bold;font-size:10px;stroke:none; fill:#333399"><tspan dy="14" x="1673">Revisa</tspan><tspan dy="14" x="1673">Documentos</tspan></text></g><g sequence="34"><rect x="1840" y="700" width="106" height="98" ry="5" rx="5" style="fill:url(#linearGradientF8FBFEEDF5FCDEEDFAD4E7F8E2E5E9_510475974);" stroke="191970" /></g><g componentSequence="34"><text x="1893" y="715" text-anchor="middle" style="font-weight:bold;font-size:10px;stroke:none; fill:#333399"><tspan dy="14" x="1893">Hace el Registro</tspan><tspan dy="14" x="1893">en el archivo</tspan><tspan dy="14" x="1893">complilado</tspan></text></g><g sequence="36"><rect x="2080" y="720" width="106" height="70" ry="5" rx="5" style="fill:url(#linearGradientF8FBFEEDF5FCDEEDFAD4E7F8E2E5E9_1548799683);" stroke="191970" /></g><g componentSequence="36"><text x="2133" y="735" text-anchor="middle" style="font-weight:bold;font-size:10px;stroke:none; fill:#333399"><tspan dy="14" x="2133">Revisa 2</tspan><tspan dy="14" x="2133">documentos</tspan></text></g><g sequence="40"><rect x="2410" y="660" width="106" height="98" ry="5" rx="5" style="fill:url(#linearGradientF8FBFEEDF5FCDEEDFAD4E7F8E2E5E9_865568495);" stroke="191970" /></g><g componentSequence="40"><text x="2463" y="675" text-anchor="middle" style="font-weight:bold;font-size:10px;stroke:none; fill:#333399"><tspan dy="14" x="2463">Indica</tspan><tspan dy="14" x="2463">candelacion u</tspan><tspan dy="14" x="2463">solicita factura</tspan><tspan dy="14" x="2463">corregida</tspan></text></g><g sequence="42"><rect x="2390" y="490" width="106" height="70" ry="5" rx="5" style="fill:url(#linearGradientF8FBFEEDF5FCDEEDFAD4E7F8E2E5E9_291904799);" stroke="191970" /></g><g componentSequence="42"><text x="2443" y="505" text-anchor="middle" style="font-weight:bold;font-size:10px;stroke:none; fill:#333399"><tspan dy="14" x="2443">Recibe</tspan><tspan dy="14" x="2443">Notificacion</tspan></text></g><g sequence="44"><rect x="1860" y="480" width="106" height="70" ry="5" rx="5" style="fill:url(#linearGradientF8FBFEEDF5FCDEEDFAD4E7F8E2E5E9_1711966971);" stroke="191970" /></g><g componentSequence="44"><text x="1913" y="495" text-anchor="middle" style="font-weight:bold;font-size:10px;stroke:none; fill:#333399"><tspan dy="14" x="1913">Envia Factura</tspan><tspan dy="14" x="1913">Corregida</tspan></text></g><g sequence="47"><rect x="2586" y="954" width="106" height="56" ry="5" rx="5" style="fill:url(#linearGradientF8FBFEEDF5FCDEEDFAD4E7F8E2E5E9_1014392367);" stroke="191970" /></g><g componentSequence="47"><text x="2639" y="971" text-anchor="middle" style="font-weight:bold;font-size:10px;stroke:none; fill:#333399"><tspan dy="14" x="2639">Autoriza Pago</tspan></text></g><g sequence="49"><ellipse cx="2803" cy="774" rx="17" ry="17" stroke-width="3" style="fill:url(#linearGradientFF6666FF9696FFB6B6_869871536);" stroke="993333" /></g><g sequence="52"><polygon points=" 2310 760 2340 730 2370 760 2340 790 2310 760" style="fill:url(#linearGradientFAFBFCFFFFCC_309744177);" stroke="000000" /></g><ellipse cx="2340" cy="760" rx="17" ry="17" stroke-width="1" style="fill:url(#linearGradientFAFBFCFFFFCC_546918358);" stroke="000000" /><polygon points=" 2326 756 2336 756 2336 746 2344 746 2344 756 2354 756 2354 764 2344 764 2344 774 2336 774 2336 764 2326 764" style="fill:url(#linearGradientFAFBFCFFFFCC_802231028);" stroke="000000" /><g componentSequence="52"><text x="2340" y="800" text-anchor="middle" style="font-weight:bold;font-size:10px;stroke:none; fill:#333399"><tspan dy="14" x="2340">Exclusiv</tspan><tspan dy="14" x="2340">o</tspan></text></g><g sequence="53"><polygon points=" 1000 550 1030 520 1060 550 1030 580 1000 550" style="fill:url(#linearGradientFAFBFCFFFFCC_1427053585);" stroke="000000" /></g><ellipse cx="1030" cy="550" rx="17" ry="17" stroke-width="1" style="fill:url(#linearGradientFAFBFCFFFFCC_1976052571);" stroke="000000" /><polygon points=" 1016 546 1026 546 1026 536 1034 536 1034 546 1044 546 1044 554 1034 554 1034 564 1026 564 1026 554 1016 554" style="fill:url(#linearGradientFAFBFCFFFFCC_533020107);" stroke="000000" /><g componentSequence="53"><text x="1030" y="590" text-anchor="middle" style="font-weight:bold;font-size:10px;stroke:none; fill:#333399"><tspan dy="14" x="1030">Exclusiv</tspan><tspan dy="14" x="1030">o</tspan></text></g><g componentSequence="10"><text x="292" y="106" style="font-size:10px;font-weight:none;stroke:none; fill:#333399" text-anchor="left" /></g><g componentSequence="12"><text x="422" y="289" style="font-size:10px;font-weight:none;stroke:none; fill:#333399" text-anchor="left" /></g><g componentSequence="14"><text x="664" y="271" style="font-size:10px;font-weight:none;stroke:none; fill:#333399" text-anchor="left" /></g><g componentSequence="16"><text x="822" y="265" style="font-size:10px;font-weight:none;stroke:none; fill:#333399" text-anchor="left" /></g><g componentSequence="18"><text x="943" y="569" style="font-size:10px;font-weight:none;stroke:none; fill:#333399" text-anchor="left" /></g><g componentSequence="20"><text x="1058" y="466" style="font-size:10px;font-weight:none;stroke:none; fill:#333399" text-anchor="left" /></g><g componentSequence="22"><text x="1189" y="563" style="font-size:10px;font-weight:none;stroke:none; fill:#333399" text-anchor="left" /></g><g componentSequence="23"><text x="1340" y="466" style="font-size:10px;font-weight:none;stroke:none; fill:#333399" text-anchor="left" /></g><g componentSequence="25"><text x="1496" y="576" style="font-size:10px;font-weight:none;stroke:none; fill:#333399" text-anchor="left" /></g><g componentSequence="27"><text x="1368" y="675" style="font-size:10px;font-weight:none;stroke:none; fill:#333399" text-anchor="left" /></g><g componentSequence="29"><text x="1387" y="974" style="font-size:10px;font-weight:none;stroke:none; fill:#333399" text-anchor="left" /></g><g componentSequence="31"><text x="1513" y="1197" style="font-size:10px;font-weight:none;stroke:none; fill:#333399" text-anchor="left" /></g><g componentSequence="33"><text x="1656" y="655" style="font-size:10px;font-weight:none;stroke:none; fill:#333399" text-anchor="left" /></g><g componentSequence="35"><text x="1793" y="746" style="font-size:10px;font-weight:none;stroke:none; fill:#333399" text-anchor="left" /></g><g componentSequence="37"><text x="2023" y="752" style="font-size:10px;font-weight:none;stroke:none; fill:#333399" text-anchor="left" /></g><g componentSequence="39"><text x="2258" y="769" style="font-size:10px;font-weight:none;stroke:none; fill:#333399" text-anchor="left" /></g><g componentSequence="41"><text x="2400" y="752" style="font-size:10px;font-weight:none;stroke:none; fill:#333399" text-anchor="left" /></g><g componentSequence="43"><text x="2462" y="610" style="font-size:10px;font-weight:none;stroke:none; fill:#333399" text-anchor="left" /></g><g componentSequence="45"><text x="2188" y="520" style="font-size:10px;font-weight:none;stroke:none; fill:#333399" text-anchor="left" /></g><g componentSequence="46"><text x="1914" y="625" style="font-size:10px;font-weight:none;stroke:none; fill:#333399" text-anchor="left" /></g><g componentSequence="48"><text x="2400" y="978" style="font-size:10px;font-weight:none;stroke:none; fill:#333399" text-anchor="left" /></g><g componentSequence="50"><text x="2811" y="940" style="font-size:10px;font-weight:none;stroke:none; fill:#333399" text-anchor="left" /></g><path style="fill:none; stroke:#000000;stroke-width:1" d="M205.0 105.0 L355.0 105.0" /><polygon style="fill:#000000; stroke:#000000;" points=" 345 100 355 105 345 110 347 105" /><path style="fill:none; stroke:#000000;stroke-width:1" d="M410.0 140.0 L412.0 354.0 L495.0 350.0" /><polygon style="fill:#000000; stroke:#000000;" points=" 485 345 495 350 485 355 487 350" /><path style="fill:none; stroke:#000000;stroke-width:1" d="M605.0 350.0 L654.0 352.0 L650.0 140.0" /><polygon style="fill:#000000; stroke:#000000;" points=" 645 150 650 140 655 150 650 148" /><path style="fill:none; stroke:#000000;stroke-width:1" d="M710.0 105.0 L812.0 105.0 L810.0 530.0" /><polygon style="fill:#000000; stroke:#000000;" points=" 815 520 810 530 805 520 810 522" /><path style="fill:none; stroke:#000000;stroke-width:1" d="M870.0 570.0 L995.0 570.0" /><polygon style="fill:#000000; stroke:#000000;" points=" 985 565 995 570 985 575 987 570" /><path style="fill:none; stroke:#000000;stroke-width:1" d="M1230.0 465.0 L1352.0 466.0 L1350.0 545.0" /><polygon style="fill:#000000; stroke:#000000;" points=" 1355 535 1350 545 1345 535 1350 537" /><path style="fill:none; stroke:#000000;stroke-width:1" d="M1030.0 515.0 L1031.0 466.0 L1115.0 465.0" /><polygon style="fill:#000000; stroke:#000000;" points=" 1105 460 1115 465 1105 470 1107 465" /><path style="fill:none; stroke:#000000;stroke-width:1" d="M1410.0 580.0 L1565.0 570.0" /><polygon style="fill:#000000; stroke:#000000;" points=" 1555 566 1565 570 1555 576 1557 571" /><path style="fill:none; stroke:#000000;stroke-width:1" d="M1355.0 620.0 L1360.0 725.0" /><polygon style="fill:#000000; stroke:#000000;" points=" 1365 715 1360 725 1355 715 1360 717" /><path style="fill:none; stroke:#000000;stroke-width:1" d="M1060.0 555.0 L1075.0 550.0 L1295.0 575.0" /><polygon style="fill:#000000; stroke:#000000;" points=" 1286 569 1295 575 1284 579 1287 574" /><path style="fill:none; stroke:#000000;stroke-width:1" d="M1630.0 605.0 L1660.0 705.0" /><polygon style="fill:#000000; stroke:#000000;" points=" 1662 694 1660 705 1652 697 1658 697" /><path style="fill:none; stroke:#000000;stroke-width:1" d="M1365.0 790.0 L1390.0 1160.0" /><polygon style="fill:#000000; stroke:#000000;" points=" 1394 1150 1390 1160 1384 1150 1389 1152" /><path style="fill:none; stroke:#000000;stroke-width:1" d="M1450.0 1195.0 L1555.0 1195.0" /><polygon style="fill:#000000; stroke:#000000;" points=" 1545 1190 1555 1195 1545 1200 1547 1195" /><path style="fill:none; stroke:#000000;stroke-width:1" d="M1730.0 745.0 L1835.0 745.0" /><polygon style="fill:#000000; stroke:#000000;" points=" 1825 740 1835 745 1825 750 1827 745" /><path style="fill:none; stroke:#000000;stroke-width:1" d="M1950.0 750.0 L2075.0 750.0" /><polygon style="fill:#000000; stroke:#000000;" points=" 2065 745 2075 750 2065 755 2067 750" /><path style="fill:none; stroke:#000000;stroke-width:1" d="M1910.0 550.0 L1895.0 695.0" /><polygon style="fill:#000000; stroke:#000000;" points=" 1901 686 1895 695 1891 685 1896 687" /><path style="fill:none; stroke:#000000;stroke-width:1" d="M2190.0 760.0 L2305.0 775.0" /><polygon style="fill:#000000; stroke:#000000;" points=" 2296 769 2305 775 2294 779 2297 774" /><path style="fill:none; stroke:#000000;stroke-width:1" d="M2455.0 655.0 L2445.0 560.0" /><polygon style="fill:#000000; stroke:#000000;" points=" 2441 570 2445 560 2451 569 2446 568" /><path style="fill:none; stroke:#000000;stroke-width:1" d="M2370.0 760.0 L2405.0 740.0" /><polygon style="fill:#000000; stroke:#000000;" points=" 2394 741 2405 740 2399 749 2398 744" /><path style="fill:none; stroke:#000000;stroke-width:1" d="M2385.0 520.0 L1970.0 515.0" /><polygon style="fill:#000000; stroke:#000000;" points=" 1980 520 1970 515 1980 510 1978 515" /><path style="fill:none; stroke:#000000;stroke-width:1" d="M2695.0 980.0 L2801.0 980.0 L2805.0 790.0" /><polygon style="fill:#000000; stroke:#000000;" points=" 2800 800 2805 790 2810 800 2805 798" /><path style="fill:none; stroke:#000000;stroke-width:1" d="M2340.0 835.0 L2340.0 977.0 L2585.0 980.0" /><polygon style="fill:#000000; stroke:#000000;" points=" 2575 975 2585 980 2575 985 2577 980" /><defs><linearGradient xmlns:xlink="http://www.w3.org/1999/xlink" xlink:href="#linearGradient66FF6696FF96B6FFB6" id="linearGradient66FF6696FF96B6FFB6_3829265" x1="0" y1="90.0" x2="0" y2="125.0" gradientUnits="userSpaceOnUse" xlink:type="simple" xlink:actuate="onLoad" xlink:show="other" /><linearGradient id="linearGradient66FF6696FF96B6FFB6"><stop style="stop-color:#66FF66;stop-opacity:1;" offset="0.0" id="stop66FF66" /><stop style="stop-color:#96FF96;stop-opacity:1;" offset="0.5" id="stop96FF96" /><stop style="stop-color:#B6FFB6;stop-opacity:1;" offset="1.0" id="stopB6FFB6" /></linearGradient><linearGradient xmlns:xlink="http://www.w3.org/1999/xlink" xlink:href="#linearGradientF8FBFEEDF5FCDEEDFAD4E7F8E2E5E9" id="linearGradientF8FBFEEDF5FCDEEDFAD4E7F8E2E5E9_251498598" x1="0" y1="70.0" x2="0" y2="176.0" gradientUnits="userSpaceOnUse" xlink:type="simple" xlink:actuate="onLoad" xlink:show="other" /><linearGradient id="linearGradientF8FBFEEDF5FCDEEDFAD4E7F8E2E5E9"><stop style="stop-color:#F8FBFE;stop-opacity:1;" offset="0.0" id="stopF8FBFE" /><stop style="stop-color:#EDF5FC;stop-opacity:1;" offset="0.25" id="stopEDF5FC" /><stop style="stop-color:#DEEDFA;stop-opacity:1;" offset="0.5" id="stopDEEDFA" /><stop style="stop-color:#D4E7F8;stop-opacity:1;" offset="0.75" id="stopD4E7F8" /><stop style="stop-color:#E2E5E9;stop-opacity:1;" offset="1.0" id="stopE2E5E9" /></linearGradient><linearGradient xmlns:xlink="http://www.w3.org/1999/xlink" xlink:href="#linearGradientF8FBFEEDF5FCDEEDFAD4E7F8E2E5E9" id="linearGradientF8FBFEEDF5FCDEEDFAD4E7F8E2E5E9_180487521" x1="0" y1="317.0" x2="0" y2="423.0" gradientUnits="userSpaceOnUse" xlink:type="simple" xlink:actuate="onLoad" xlink:show="other" /><linearGradient xmlns:xlink="http://www.w3.org/1999/xlink" xlink:href="#linearGradientF8FBFEEDF5FCDEEDFAD4E7F8E2E5E9" id="linearGradientF8FBFEEDF5FCDEEDFAD4E7F8E2E5E9_1338022493" x1="0" y1="70.0" x2="0" y2="176.0" gradientUnits="userSpaceOnUse" xlink:type="simple" xlink:actuate="onLoad" xlink:show="other" /><linearGradient xmlns:xlink="http://www.w3.org/1999/xlink" xlink:href="#linearGradientF8FBFEEDF5FCDEEDFAD4E7F8E2E5E9" id="linearGradientF8FBFEEDF5FCDEEDFAD4E7F8E2E5E9_475606866" x1="0" y1="531.0" x2="0" y2="637.0" gradientUnits="userSpaceOnUse" xlink:type="simple" xlink:actuate="onLoad" xlink:show="other" /><linearGradient xmlns:xlink="http://www.w3.org/1999/xlink" xlink:href="#linearGradientF8FBFEEDF5FCDEEDFAD4E7F8E2E5E9" id="linearGradientF8FBFEEDF5FCDEEDFAD4E7F8E2E5E9_2118513183" x1="0" y1="430.0" x2="0" y2="536.0" gradientUnits="userSpaceOnUse" xlink:type="simple" xlink:actuate="onLoad" xlink:show="other" /><linearGradient xmlns:xlink="http://www.w3.org/1999/xlink" xlink:href="#linearGradientF8FBFEEDF5FCDEEDFAD4E7F8E2E5E9" id="linearGradientF8FBFEEDF5FCDEEDFAD4E7F8E2E5E9_1681267131" x1="0" y1="550.0" x2="0" y2="656.0" gradientUnits="userSpaceOnUse" xlink:type="simple" xlink:actuate="onLoad" xlink:show="other" /><linearGradient xmlns:xlink="http://www.w3.org/1999/xlink" xlink:href="#linearGradientF8FBFEEDF5FCDEEDFAD4E7F8E2E5E9" id="linearGradientF8FBFEEDF5FCDEEDFAD4E7F8E2E5E9_804218130" x1="0" y1="532.0" x2="0" y2="638.0" gradientUnits="userSpaceOnUse" xlink:type="simple" xlink:actuate="onLoad" xlink:show="other" /><linearGradient xmlns:xlink="http://www.w3.org/1999/xlink" xlink:href="#linearGradientF8FBFEEDF5FCDEEDFAD4E7F8E2E5E9" id="linearGradientF8FBFEEDF5FCDEEDFAD4E7F8E2E5E9_2048523266" x1="0" y1="730.0" x2="0" y2="836.0" gradientUnits="userSpaceOnUse" xlink:type="simple" xlink:actuate="onLoad" xlink:show="other" /><linearGradient xmlns:xlink="http://www.w3.org/1999/xlink" xlink:href="#linearGradientF8FBFEEDF5FCDEEDFAD4E7F8E2E5E9" id="linearGradientF8FBFEEDF5FCDEEDFAD4E7F8E2E5E9_731724884" x1="0" y1="1162.0" x2="0" y2="1268.0" gradientUnits="userSpaceOnUse" xlink:type="simple" xlink:actuate="onLoad" xlink:show="other" /><linearGradient xmlns:xlink="http://www.w3.org/1999/xlink" xlink:href="#linearGradientFF6666FF9696FFB6B6" id="linearGradientFF6666FF9696FFB6B6_2133988189" x1="0" y1="1180.0" x2="0" y2="1215.0" gradientUnits="userSpaceOnUse" xlink:type="simple" xlink:actuate="onLoad" xlink:show="other" /><linearGradient id="linearGradientFF6666FF9696FFB6B6"><stop style="stop-color:#FF6666;stop-opacity:1;" offset="0.0" id="stopFF6666" /><stop style="stop-color:#FF9696;stop-opacity:1;" offset="0.5" id="stopFF9696" /><stop style="stop-color:#FFB6B6;stop-opacity:1;" offset="1.0" id="stopFFB6B6" /></linearGradient><linearGradient xmlns:xlink="http://www.w3.org/1999/xlink" xlink:href="#linearGradientF8FBFEEDF5FCDEEDFAD4E7F8E2E5E9" id="linearGradientF8FBFEEDF5FCDEEDFAD4E7F8E2E5E9_731987548" x1="0" y1="709.0" x2="0" y2="815.0" gradientUnits="userSpaceOnUse" xlink:type="simple" xlink:actuate="onLoad" xlink:show="other" /><linearGradient xmlns:xlink="http://www.w3.org/1999/xlink" xlink:href="#linearGradientF8FBFEEDF5FCDEEDFAD4E7F8E2E5E9" id="linearGradientF8FBFEEDF5FCDEEDFAD4E7F8E2E5E9_510475974" x1="0" y1="700.0" x2="0" y2="806.0" gradientUnits="userSpaceOnUse" xlink:type="simple" xlink:actuate="onLoad" xlink:show="other" /><linearGradient xmlns:xlink="http://www.w3.org/1999/xlink" xlink:href="#linearGradientF8FBFEEDF5FCDEEDFAD4E7F8E2E5E9" id="linearGradientF8FBFEEDF5FCDEEDFAD4E7F8E2E5E9_1548799683" x1="0" y1="720.0" x2="0" y2="826.0" gradientUnits="userSpaceOnUse" xlink:type="simple" xlink:actuate="onLoad" xlink:show="other" /><linearGradient xmlns:xlink="http://www.w3.org/1999/xlink" xlink:href="#linearGradientF8FBFEEDF5FCDEEDFAD4E7F8E2E5E9" id="linearGradientF8FBFEEDF5FCDEEDFAD4E7F8E2E5E9_865568495" x1="0" y1="660.0" x2="0" y2="766.0" gradientUnits="userSpaceOnUse" xlink:type="simple" xlink:actuate="onLoad" xlink:show="other" /><linearGradient xmlns:xlink="http://www.w3.org/1999/xlink" xlink:href="#linearGradientF8FBFEEDF5FCDEEDFAD4E7F8E2E5E9" id="linearGradientF8FBFEEDF5FCDEEDFAD4E7F8E2E5E9_291904799" x1="0" y1="490.0" x2="0" y2="596.0" gradientUnits="userSpaceOnUse" xlink:type="simple" xlink:actuate="onLoad" xlink:show="other" /><linearGradient xmlns:xlink="http://www.w3.org/1999/xlink" xlink:href="#linearGradientF8FBFEEDF5FCDEEDFAD4E7F8E2E5E9" id="linearGradientF8FBFEEDF5FCDEEDFAD4E7F8E2E5E9_1711966971" x1="0" y1="480.0" x2="0" y2="586.0" gradientUnits="userSpaceOnUse" xlink:type="simple" xlink:actuate="onLoad" xlink:show="other" /><linearGradient xmlns:xlink="http://www.w3.org/1999/xlink" xlink:href="#linearGradientF8FBFEEDF5FCDEEDFAD4E7F8E2E5E9" id="linearGradientF8FBFEEDF5FCDEEDFAD4E7F8E2E5E9_1014392367" x1="0" y1="954.0" x2="0" y2="1060.0" gradientUnits="userSpaceOnUse" xlink:type="simple" xlink:actuate="onLoad" xlink:show="other" /><linearGradient xmlns:xlink="http://www.w3.org/1999/xlink" xlink:href="#linearGradientFF6666FF9696FFB6B6" id="linearGradientFF6666FF9696FFB6B6_869871536" x1="0" y1="757.0" x2="0" y2="792.0" gradientUnits="userSpaceOnUse" xlink:type="simple" xlink:actuate="onLoad" xlink:show="other" /><linearGradient xmlns:xlink="http://www.w3.org/1999/xlink" xlink:href="#linearGradientFAFBFCFFFFCC" id="linearGradientFAFBFCFFFFCC_309744177" x1="0" y1="730.0" x2="0" y2="790.0" gradientUnits="userSpaceOnUse" xlink:type="simple" xlink:actuate="onLoad" xlink:show="other" /><linearGradient id="linearGradientFAFBFCFFFFCC"><stop style="stop-color:#FAFBFC;stop-opacity:1;" offset="0.0" id="stopFAFBFC" /><stop style="stop-color:#FFFFCC;stop-opacity:1;" offset="1.0" id="stopFFFFCC" /></linearGradient><linearGradient xmlns:xlink="http://www.w3.org/1999/xlink" xlink:href="#linearGradientFAFBFCFFFFCC" id="linearGradientFAFBFCFFFFCC_546918358" x1="0" y1="743.0" x2="0" y2="778.0" gradientUnits="userSpaceOnUse" xlink:type="simple" xlink:actuate="onLoad" xlink:show="other" /><linearGradient xmlns:xlink="http://www.w3.org/1999/xlink" xlink:href="#linearGradientFAFBFCFFFFCC" id="linearGradientFAFBFCFFFFCC_802231028" x1="0" y1="743.0" x2="0" y2="778.0" gradientUnits="userSpaceOnUse" xlink:type="simple" xlink:actuate="onLoad" xlink:show="other" /><linearGradient xmlns:xlink="http://www.w3.org/1999/xlink" xlink:href="#linearGradientFAFBFCFFFFCC" id="linearGradientFAFBFCFFFFCC_1427053585" x1="0" y1="520.0" x2="0" y2="580.0" gradientUnits="userSpaceOnUse" xlink:type="simple" xlink:actuate="onLoad" xlink:show="other" /><linearGradient xmlns:xlink="http://www.w3.org/1999/xlink" xlink:href="#linearGradientFAFBFCFFFFCC" id="linearGradientFAFBFCFFFFCC_1976052571" x1="0" y1="533.0" x2="0" y2="568.0" gradientUnits="userSpaceOnUse" xlink:type="simple" xlink:actuate="onLoad" xlink:show="other" /><linearGradient xmlns:xlink="http://www.w3.org/1999/xlink" xlink:href="#linearGradientFAFBFCFFFFCC" id="linearGradientFAFBFCFFFFCC_533020107" x1="0" y1="533.0" x2="0" y2="568.0" gradientUnits="userSpaceOnUse" xlink:type="simple" xlink:actuate="onLoad" xlink:show="other" /></defs></svg>
